<svg width="56" height="32" viewBox="0 0 56 32" fill="none" xmlns="http://www.w3.org/2000/svg">
<path d="M13.1727 27.7599L14.7849 31.1897C14.8797 31.3317 14.8797 31.4499 14.8086 31.5919C14.7375 31.7101 14.5952 31.7811 14.4293 31.7811H13.149C12.7223 31.7811 12.4141 31.5919 12.2481 31.1897L10.8256 28.1857L10.7782 28.2093H10.4937H9.71137V31.1424C9.71137 31.3317 9.66396 31.4736 9.54542 31.6155C9.42688 31.7338 9.26092 31.8048 9.07126 31.8048H7.76731C7.57765 31.8048 7.41169 31.7338 7.29315 31.6155C7.17461 31.4973 7.1272 31.3317 7.1272 31.1424V21.8227C7.1272 21.6334 7.19832 21.4915 7.31686 21.3496C7.4354 21.2313 7.60136 21.1603 7.79102 21.1603H10.8256C12.2481 21.1603 13.315 21.4442 14.0262 22.0355C14.7375 22.6269 15.0931 23.5494 15.0931 24.8504C15.0931 25.5364 14.9271 26.1277 14.5952 26.6245C14.2396 27.1212 13.7654 27.4997 13.1727 27.7599ZM12.7223 24.8031C12.7223 24.33 12.5563 23.9752 12.2244 23.7387C11.8925 23.5021 11.4184 23.3838 10.8494 23.3838H9.66396V26.1987H10.9442C11.4895 26.1987 11.9162 26.0804 12.2244 25.8439C12.58 25.6073 12.7223 25.2525 12.7223 24.8031Z" fill="white"/>
<path d="M21.3047 27.7362V21.8227C21.3047 21.6334 21.3521 21.4915 21.4706 21.3496C21.5892 21.2313 21.7551 21.1603 21.9448 21.1603H23.2013C23.391 21.1603 23.5569 21.2313 23.6755 21.3496C23.794 21.4678 23.8414 21.6334 23.8414 21.8227V27.9964C23.8414 29.2974 23.5332 30.2909 22.8931 30.9296C22.2767 31.5682 21.2573 31.8994 19.8348 31.8994C18.3886 31.8994 17.3454 31.5682 16.729 30.9059C16.1363 30.2436 15.8281 29.2738 15.8281 27.9964V21.8227C15.8281 21.6334 15.8755 21.4915 15.9941 21.3496C16.1126 21.2313 16.2786 21.1603 16.4682 21.1603H17.7248C17.9144 21.1603 18.0804 21.2313 18.1989 21.3496C18.3175 21.4678 18.3649 21.6334 18.3649 21.8227V27.7362C18.3649 28.9899 18.839 29.6286 19.8111 29.6286C20.8305 29.6286 21.3047 28.9899 21.3047 27.7362Z" fill="white"/>
<path d="M28.6545 29.7468C29.5554 29.7468 30.0058 29.392 30.0058 28.6824C30.0058 28.4695 29.911 28.2566 29.7213 28.1147C29.5316 27.9491 29.2946 27.8308 28.9864 27.7362C28.6782 27.6416 28.3462 27.5233 27.9906 27.4287C27.635 27.3341 27.2557 27.1921 26.9001 27.0502C26.5444 26.8846 26.2125 26.6954 25.9043 26.4825C25.5961 26.2696 25.359 25.9621 25.1694 25.56C24.9797 25.1579 24.8849 24.7084 24.8849 24.1881C24.8849 23.3602 25.1931 22.6269 25.8332 21.9882C26.4733 21.3495 27.3742 21.042 28.5833 21.042C29.745 21.042 30.6459 21.2786 31.3097 21.7517C31.9736 22.2248 32.3766 22.8871 32.4952 23.7623C32.5426 24.1644 32.3766 24.4009 31.9736 24.4719L30.7645 24.7084C30.3614 24.7558 30.1718 24.6611 30.1718 24.4483C30.1481 24.0934 30.0058 23.7859 29.7213 23.5494C29.4368 23.3128 29.0812 23.1946 28.6545 23.1946C28.2514 23.1946 27.9432 23.2892 27.7535 23.4784C27.5402 23.6677 27.4453 23.9279 27.4453 24.2354C27.4453 24.4719 27.5639 24.6848 27.8247 24.874C28.0855 25.0633 28.3937 25.2052 28.773 25.3235C29.1523 25.4417 29.5791 25.5837 30.0058 25.7492C30.4563 25.9385 30.8593 26.1277 31.2386 26.3642C31.618 26.6008 31.9262 26.9319 32.1869 27.3577C32.4477 27.8072 32.5663 28.3275 32.5663 28.9426C32.5663 29.8178 32.2581 30.5274 31.618 31.0714C31.0015 31.5918 29.9821 31.8757 28.5596 31.8993C27.4453 31.8993 26.5919 31.6628 25.9517 31.1661C25.3353 30.6693 24.956 30.0307 24.8375 29.2737C24.7663 28.8716 24.9323 28.6351 25.359 28.5641L26.497 28.3749C26.9475 28.2802 27.1846 28.3985 27.1846 28.706C27.1846 28.9899 27.3268 29.2501 27.6113 29.463C27.8958 29.6522 28.2514 29.7468 28.6545 29.7468Z" fill="white"/>
<path d="M36.8659 29.7485C37.7668 29.7485 38.2172 29.3937 38.2172 28.6841C38.2172 28.4712 38.1224 28.2583 37.9327 28.1164C37.7431 27.9508 37.506 27.8326 37.1978 27.7379C36.8896 27.6433 36.5577 27.525 36.2021 27.4304C35.8464 27.3358 35.4671 27.1939 35.1115 27.052C34.7559 26.8864 34.4239 26.6971 34.1157 26.4843C33.8075 26.2714 33.5705 25.9639 33.3808 25.5617C33.1911 25.1596 33.0963 24.7102 33.0963 24.1898C33.0963 23.3619 33.4045 22.6286 34.0446 21.9899C34.6847 21.3513 35.5856 21.0438 36.7948 21.0438C37.9564 21.0438 38.8574 21.2803 39.5212 21.7534C40.185 22.2265 40.588 22.8888 40.7066 23.764C40.754 24.1661 40.588 24.4027 40.185 24.4736L38.9759 24.7102C38.5729 24.7575 38.3832 24.6629 38.3832 24.45C38.3595 24.0952 38.2172 23.7877 37.9327 23.5511C37.6482 23.3146 37.2926 23.1963 36.8659 23.1963C36.4628 23.1963 36.1546 23.2909 35.965 23.4802C35.7516 23.6694 35.6568 23.9296 35.6568 24.2371C35.6568 24.4736 35.7753 24.6865 36.0361 24.8758C36.2969 25.065 36.6051 25.2069 36.9844 25.3252C37.3637 25.4435 37.7905 25.5854 38.2172 25.751C38.6677 25.9402 39.0707 26.1294 39.4501 26.366C39.8294 26.6025 40.1376 26.9337 40.3984 27.3595C40.6592 27.8089 40.7777 28.3293 40.7777 28.9443C40.7777 29.8195 40.4695 30.5291 39.8294 31.0732C39.213 31.5936 38.1935 31.8774 36.771 31.9011C35.6568 31.9011 34.8033 31.6645 34.1632 31.1678C33.5468 30.6711 33.1674 30.0324 33.0489 29.2755C32.9778 28.8733 33.1437 28.6368 33.5705 28.5658L34.7084 28.3766C35.1589 28.282 35.396 28.4003 35.396 28.7078C35.396 28.9916 35.5382 29.2518 35.8227 29.4647C36.1072 29.6539 36.4391 29.7485 36.8659 29.7485Z" fill="white"/>
<path d="M45.1788 23.3602V29.5576H45.7715C45.9612 29.5576 46.1271 29.6286 46.2456 29.7468C46.3642 29.8651 46.4116 30.0307 46.4116 30.2199V31.1188C46.4116 31.308 46.3642 31.4499 46.2456 31.5919C46.1271 31.7101 45.9612 31.7811 45.7715 31.7811H42.0256C41.836 31.7811 41.67 31.7101 41.5515 31.5919C41.4329 31.4736 41.3855 31.308 41.3855 31.1188V30.2199C41.3855 30.0307 41.4329 29.8888 41.5515 29.7468C41.67 29.6286 41.836 29.5576 42.0256 29.5576H42.6183V23.3602H42.0256C41.836 23.3602 41.67 23.2892 41.5515 23.171C41.4329 23.0527 41.3855 22.8871 41.3855 22.7215V21.8227C41.3855 21.6334 41.4329 21.4915 41.5515 21.3496C41.67 21.2313 41.836 21.1603 42.0256 21.1603H45.7715C45.9612 21.1603 46.1271 21.2313 46.2456 21.3496C46.3642 21.4678 46.4116 21.6334 46.4116 21.8227V22.7215C46.4116 22.9108 46.3642 23.0527 46.2456 23.171C46.1271 23.2892 45.9612 23.3602 45.7715 23.3602H45.1788Z" fill="white"/>
<path d="M54.9938 24.6138V29.1081C54.9938 29.463 55.1835 29.6522 55.5391 29.6522L55.7525 29.6285C55.871 29.6285 55.9422 29.6758 55.9422 29.7941V31.1188C55.9422 31.3316 55.8947 31.5209 55.7999 31.6155C55.7051 31.7338 55.5628 31.8047 55.3495 31.8284C55.1835 31.8757 54.9227 31.8757 54.5671 31.8757C54.1878 31.8757 53.8796 31.8047 53.5951 31.6392C53.3106 31.4736 53.1209 31.3316 53.0024 31.1661C52.8838 31.0005 52.8364 30.8586 52.8601 30.7639V30.7403H52.7653C52.623 30.9059 52.5045 31.0478 52.4097 31.1424C51.9118 31.6391 51.1768 31.8993 50.2285 31.8993C49.2091 31.8993 48.403 31.5682 47.8103 30.9295C47.2413 30.2672 46.9331 29.4866 46.9331 28.5641C46.9331 27.6652 47.2413 26.8846 47.8814 26.246C48.4978 25.5837 49.375 25.2762 50.4656 25.2762C50.8449 25.2762 51.2006 25.3235 51.5325 25.4417C51.8644 25.56 52.1015 25.6783 52.2437 25.7965L52.4334 25.9621H52.4571V24.945C52.4571 23.8569 51.9592 23.3128 50.9872 23.3128C50.513 23.3128 50.1337 23.4075 49.8966 23.6204C49.6358 23.8096 49.5173 24.0698 49.5173 24.3536C49.5173 24.5902 49.3276 24.6611 48.9246 24.5665L47.7866 24.3773C47.5732 24.33 47.4073 24.2827 47.3599 24.2354C47.2887 24.1881 47.265 24.0934 47.2887 23.9752C47.2887 23.3128 47.5495 22.6742 48.0711 22.0828C48.6638 21.3969 49.6595 21.0657 51.082 21.0657C53.6662 21.042 54.9938 22.2484 54.9938 24.6138ZM51.0346 30.007C51.5325 30.007 51.9355 29.8651 52.22 29.6049C52.5045 29.3447 52.6467 28.9899 52.6467 28.5877C52.6467 28.1856 52.5045 27.8308 52.22 27.5706C51.9355 27.3104 51.5562 27.1685 51.0346 27.1685C50.5841 27.1685 50.2048 27.2868 49.9203 27.547C49.6358 27.8072 49.4936 28.1383 49.4936 28.5641C49.4936 28.9899 49.6358 29.321 49.9203 29.5812C50.2048 29.8887 50.5841 30.007 51.0346 30.007Z" fill="white"/>
<path d="M26.0566 16.051H26.0803V14.9156C26.0803 14.7736 26.1514 14.7263 26.2937 14.7263H26.6493C26.7916 14.7263 26.8627 14.7973 26.8627 14.9156V19.8593C26.8627 19.9776 26.7916 20.0249 26.6493 20.0249H26.3411C26.1989 20.0249 26.1277 19.9776 26.1277 19.8593V19.5045H26.104C26.0566 19.6464 25.9381 19.7883 25.7484 19.9066C25.5587 20.0249 25.3217 20.0958 24.9898 20.0958C23.9703 20.0958 23.4487 19.3389 23.4487 17.8014C23.4487 16.2875 23.9703 15.5069 25.0135 15.5069C25.298 15.5069 25.5113 15.5542 25.701 15.6725C25.8907 15.7671 26.0092 15.8854 26.0566 16.051ZM26.1752 17.7777C26.1752 16.6896 25.8195 16.1456 25.132 16.1456C24.8238 16.1456 24.5867 16.2875 24.4445 16.5477C24.3022 16.8079 24.2311 17.2337 24.2311 17.7777C24.2311 18.8895 24.5393 19.4335 25.132 19.4335C25.4876 19.4335 25.7721 19.2916 25.9381 19.0314C26.0803 18.7475 26.1752 18.3454 26.1752 17.7777Z" fill="white"/>
<path d="M28.8069 17.0917V19.4098H29.1151C29.2573 19.4098 29.3284 19.4808 29.3284 19.5991V19.8356C29.3284 19.9775 29.2573 20.0248 29.1151 20.0248H27.7163C27.5741 20.0248 27.5029 19.9539 27.5029 19.8356V19.5991C27.5029 19.4808 27.5741 19.4098 27.7163 19.4098H28.0245V17.0917H27.7163C27.5741 17.0917 27.5029 17.0207 27.5029 16.9025V16.6659C27.5029 16.524 27.5741 16.4767 27.7163 16.4767H29.1151C29.2573 16.4767 29.3284 16.5477 29.3284 16.6659V16.9025C29.3284 17.0444 29.2573 17.0917 29.1151 17.0917H28.8069ZM28.4038 16.1219C28.2142 16.1219 28.0719 16.0746 27.9297 15.9563C27.8111 15.838 27.74 15.7198 27.74 15.5542C27.74 15.3886 27.8111 15.2703 27.9297 15.1521C28.0482 15.0338 28.2142 14.9865 28.4038 14.9865C28.5698 14.9865 28.7357 15.0338 28.8543 15.1521C28.9728 15.2703 29.044 15.3886 29.044 15.5542C29.044 15.7198 28.9728 15.838 28.8543 15.9563C28.712 16.0746 28.5698 16.1219 28.4038 16.1219Z" fill="white"/>
<path d="M31.3911 19.4571C31.96 19.4571 32.2445 19.2442 32.2445 18.7948C32.2445 18.6529 32.1971 18.5346 32.1023 18.44C32.0075 18.3454 31.8889 18.2744 31.7467 18.2034C31.6044 18.1325 31.4385 18.0852 31.2725 18.0379C31.1066 17.9905 30.9169 17.9196 30.7509 17.8486C30.585 17.7777 30.419 17.7067 30.2768 17.6121C30.1345 17.5175 30.016 17.3992 29.9212 17.2336C29.8263 17.068 29.7789 16.8788 29.7789 16.6659C29.7789 16.3347 29.9212 16.0509 30.182 15.8144C30.4427 15.5778 30.8458 15.4359 31.3674 15.4359C31.8652 15.4359 32.2683 15.5305 32.5528 15.7434C32.8372 15.9563 33.0032 16.2401 33.0269 16.5713C33.0506 16.6896 32.9795 16.7842 32.8372 16.8078L32.5053 16.8551C32.3394 16.8788 32.2683 16.8315 32.2683 16.7132C32.2445 16.524 32.1497 16.3584 32.0075 16.2401C31.8652 16.1219 31.6518 16.0745 31.3911 16.0745C31.1303 16.0745 30.9406 16.1219 30.7984 16.2401C30.6561 16.3584 30.585 16.5003 30.585 16.6896C30.585 16.8315 30.6324 16.9498 30.7509 17.068C30.8221 17.1153 30.9169 17.1863 31.0117 17.2336C31.1066 17.2809 31.2488 17.3282 31.4148 17.3755C31.5807 17.4228 31.6993 17.4702 31.7941 17.5175C31.9601 17.5884 32.1734 17.683 32.3868 17.7777C32.5765 17.8723 32.7424 18.0142 32.861 18.2034C32.9795 18.3927 33.0269 18.6056 33.0269 18.8658C33.0269 19.2442 32.8847 19.5281 32.6002 19.741C32.3157 19.9538 31.8889 20.0721 31.3199 20.0721C30.8221 20.0721 30.419 19.9775 30.1345 19.741C29.85 19.5044 29.7078 19.2679 29.6841 18.984C29.6841 18.8658 29.7315 18.7711 29.8737 18.7475L30.2057 18.7002C30.3479 18.6765 30.419 18.7238 30.4427 18.8421C30.4664 19.0077 30.5613 19.1496 30.7035 19.2679C30.9169 19.3861 31.1303 19.4571 31.3911 19.4571Z" fill="white"/>
<path d="M35.3028 19.4335C35.8955 19.4335 36.2037 19.1497 36.2274 18.582C36.2274 18.4637 36.3222 18.4164 36.4645 18.44L36.7964 18.4874C36.9386 18.511 37.0097 18.582 36.986 18.7239C36.9149 19.6464 36.3696 20.0958 35.3028 20.0958C34.6152 20.0958 34.1174 19.9066 33.8566 19.5045C33.6195 19.126 33.5247 18.5583 33.5247 17.825C33.5247 17.2573 33.5958 16.8079 33.738 16.4531C33.9988 15.8144 34.5204 15.4833 35.3265 15.4833C36.3933 15.4833 36.9623 15.9327 37.0097 16.8552C37.0097 16.9971 36.9386 17.0681 36.8201 17.0918L36.4882 17.1391C36.3222 17.1627 36.2511 17.1391 36.2511 17.0444C36.2274 16.7606 36.1562 16.5477 35.9903 16.3821C35.8243 16.2165 35.611 16.1456 35.3265 16.1456C34.9946 16.1456 34.7575 16.2639 34.5915 16.5004C34.5204 16.595 34.473 16.7133 34.4256 16.8789C34.3781 17.1154 34.3544 17.4466 34.3544 17.8487C34.3544 18.2745 34.3781 18.6293 34.4493 18.8658C34.4967 19.0787 34.5915 19.2443 34.7338 19.3389C34.8286 19.3626 35.0183 19.4099 35.3028 19.4335Z" fill="white"/>
<path d="M41.135 17.7777C41.135 18.5819 40.9928 19.1496 40.6846 19.5281C40.3764 19.8829 39.9259 20.0721 39.2621 20.0721C38.622 20.0721 38.1478 19.8829 37.8396 19.5281C37.5314 19.1733 37.3892 18.5819 37.3892 17.7777C37.3892 16.9734 37.5314 16.3821 37.8396 16.0036C38.1478 15.6251 38.622 15.4359 39.2621 15.4359C39.9022 15.4359 40.3764 15.6251 40.6846 16.0036C40.9928 16.3821 41.135 16.9734 41.135 17.7777ZM38.2189 17.7777C38.2189 18.3454 38.3138 18.7711 38.4797 19.0313C38.6457 19.2915 38.9065 19.4098 39.2858 19.4098C39.6651 19.4098 39.9259 19.2915 40.0919 19.0313C40.2578 18.7711 40.3527 18.3454 40.3527 17.7777C40.3527 17.1863 40.2578 16.7605 40.0919 16.5003C39.9259 16.2401 39.6651 16.0982 39.2858 16.0982C38.9065 16.0982 38.6457 16.2401 38.4797 16.5003C38.2901 16.7605 38.2189 17.1863 38.2189 17.7777Z" fill="white"/>
<path d="M45.1415 15.6961L43.7902 19.8592C43.7427 19.9775 43.6479 20.0484 43.5057 20.0484H43.0789C42.9367 20.0484 42.8418 19.9775 42.7944 19.8592L41.4431 15.6961C41.4194 15.6487 41.4194 15.6014 41.4668 15.5541C41.4905 15.5068 41.5379 15.5068 41.609 15.5068H42.0832C42.2254 15.5068 42.3203 15.5778 42.3677 15.6961L43.3397 19.0077L44.3117 15.6961C44.3592 15.5778 44.454 15.5068 44.5962 15.5068H44.9993C45.0704 15.5068 45.1178 15.5305 45.1415 15.5541C45.1652 15.6014 45.1652 15.6251 45.1415 15.6961Z" fill="white"/>
<path d="M47.2992 19.4335C47.5837 19.4335 47.797 19.3862 47.9393 19.2679C48.0815 19.1497 48.1764 19.0077 48.2001 18.8185C48.2001 18.7239 48.2712 18.6766 48.3897 18.7002L48.6979 18.7475C48.8402 18.7712 48.9113 18.8422 48.8876 18.9841C48.8402 19.2916 48.6979 19.5754 48.4135 19.7883C48.1527 20.0012 47.7733 20.1195 47.2755 20.1195C46.5642 20.1195 46.0901 19.9066 45.8056 19.4572C45.5685 19.0314 45.45 18.4637 45.45 17.7304C45.45 17.0444 45.5685 16.5004 45.8056 16.1219C46.0664 15.6961 46.5405 15.4833 47.2281 15.4833C47.7496 15.4833 48.129 15.6252 48.3897 15.8854C48.5083 16.0037 48.6031 16.1692 48.6742 16.3585C48.7928 16.666 48.8639 17.1154 48.8876 17.6831V17.7777C48.8876 17.8014 48.8876 17.825 48.8639 17.8487C48.8402 17.8723 48.8165 17.8723 48.7691 17.8723H46.256C46.256 18.2745 46.3034 18.582 46.3746 18.8185C46.5168 19.2206 46.825 19.4335 47.2992 19.4335ZM46.256 17.3046H48.129C48.129 16.9025 48.0341 16.6187 47.9156 16.4058C47.7733 16.1929 47.5363 16.0746 47.2043 16.0746C46.8724 16.0746 46.6354 16.1692 46.4931 16.3821C46.3746 16.5714 46.2797 16.8789 46.256 17.3046Z" fill="white"/>
<path d="M51.4954 16.1456C51.3057 16.1456 51.1398 16.1692 50.9975 16.2402C50.8553 16.3111 50.7368 16.3821 50.6419 16.4767C50.5471 16.5713 50.476 16.6896 50.4285 16.8315C50.3811 16.9735 50.3337 17.0917 50.31 17.2336C50.2863 17.3519 50.2863 17.4938 50.2863 17.6358V19.8356C50.2863 19.9775 50.2152 20.0249 50.0729 20.0249H49.6936C49.5514 20.0249 49.4802 19.9539 49.4802 19.8356V15.6961C49.4802 15.5542 49.5514 15.5069 49.6936 15.5069H49.9781C50.1203 15.5069 50.1915 15.5779 50.1915 15.6961V16.3348H50.2152C50.2626 16.2165 50.31 16.0746 50.4048 15.9563C50.6656 15.6252 51.0212 15.4596 51.5191 15.4596C51.5665 15.4596 51.6377 15.4596 51.6851 15.4832C51.7562 15.5069 51.8036 15.5305 51.8036 15.6252V16.0273C51.8036 16.1219 51.7562 16.1692 51.6377 16.1692H51.6139C51.6139 16.1692 51.5902 16.1692 51.5428 16.1692C51.5665 16.1456 51.5428 16.1456 51.4954 16.1456Z" fill="white"/>
<path d="M53.9135 20.0722C52.8704 20.0485 52.3251 19.6937 52.3014 18.9604C52.3014 18.8422 52.3488 18.7712 52.4911 18.7476L52.823 18.7002C52.8941 18.6766 52.9415 18.7002 52.9889 18.7239C53.0364 18.7475 53.0364 18.7949 53.0364 18.8185C53.0838 19.2679 53.3683 19.4808 53.9373 19.4808C54.2455 19.4808 54.4825 19.4099 54.6248 19.2443C54.767 19.0787 54.8619 18.8658 54.8619 18.582V17.6358H54.8382C54.7907 17.7541 54.7196 17.8723 54.5774 18.0143C54.3877 18.2035 54.1032 18.2745 53.6765 18.2745C53.4157 18.2745 53.1786 18.2272 52.9889 18.1562C52.7993 18.0616 52.6333 17.967 52.5148 17.8014C52.3962 17.6595 52.3014 17.4939 52.254 17.3046C52.2066 17.1154 52.1829 16.9262 52.1829 16.6896V15.6725C52.1829 15.5306 52.254 15.4833 52.3962 15.4833H52.7519C52.8941 15.4833 52.9652 15.5542 52.9652 15.6725V16.5477C52.9652 17.2573 53.2734 17.6121 53.8661 17.6121C54.0321 17.6121 54.198 17.5648 54.3166 17.4939C54.4588 17.4229 54.5537 17.3283 54.6248 17.21C54.6959 17.0918 54.7433 16.9735 54.7908 16.8789C54.8145 16.7606 54.8382 16.666 54.8382 16.5477V15.6725C54.8382 15.5306 54.9093 15.4833 55.0515 15.4833H55.4072C55.5494 15.4833 55.6205 15.5542 55.6205 15.6725V18.582C55.6205 19.0551 55.4783 19.4099 55.2175 19.6701C54.933 19.9539 54.5063 20.0958 53.9135 20.0722Z" fill="white"/>
<path d="M26.1516 12.4555C23.7334 10.5158 22.4532 11.6986 20.6751 13.2834C19.2763 14.5371 17.4034 14.8446 16.218 13.0705C15.6727 12.1716 14.6769 11.6749 14.3924 11.6039C13.9657 11.462 14.0605 9.97179 14.3687 9.78256C14.7006 9.56967 15.1985 9.61698 15.6016 9.54601C15.9572 9.47505 16.3602 9.42774 16.3839 9.26216C16.1705 8.43426 15.3171 9.04928 15.2934 8.24503C16.1705 7.93752 17.5456 8.69446 17.9249 7.15694C18.0672 6.54192 18.6362 5.52479 18.0435 5.40652C15.649 4.93343 14.8192 2.21319 12.4958 1.76376C12.1165 1.59818 11.8794 1.47991 11.6423 1.40895C11.3815 0.249889 10.6466 -0.128579 9.79309 0.0370007C9.05814 0.178926 8.82106 0.746628 8.91589 1.36164C8.58398 1.38529 8.25207 1.38529 8.0624 1.24337C7.49341 0.8649 4.76699 -0.790899 5.57306 3.63245C5.3834 5.3119 4.55361 6.09249 4.38766 6.77847C3.98462 8.57619 4.19799 9.26216 4.10316 11.0835C4.07945 11.9114 3.88979 12.6447 2.89405 13.1415C0.00167451 15.1048 -0.472486 19.4808 0.381003 21.6097C0.736623 22.3903 1.11595 23.1945 1.77978 23.8332C2.79922 24.8267 3.96091 26.033 5.24115 25.7728C5.4071 25.7492 5.52564 25.6782 5.62048 25.6073V22.9775C5.62048 21.3207 6.96362 19.9775 8.62048 19.9775H19.4423C20.9359 19.2679 22.2161 17.896 22.9985 16.0746C23.2118 15.5779 23.4963 14.1113 23.4963 14.1113H24.8951C24.9662 14.1113 25.0136 14.1113 25.0848 14.1113H26.6969C26.768 14.0403 26.8392 13.9694 26.8866 13.8511C27.0999 13.2124 26.6021 12.8103 26.1516 12.4555ZM13.207 4.36573C12.9463 4.36573 12.7092 4.15284 12.7092 3.86899C12.7092 3.6088 12.9225 3.37225 13.207 3.37225C13.4915 3.37225 13.7049 3.58514 13.7049 3.86899C13.7049 4.15284 13.4915 4.36573 13.207 4.36573Z" fill="#00D0DB"/>
</svg>
