<svg width="12" height="9" viewBox="0 0 12 9" fill="none" xmlns="http://www.w3.org/2000/svg">
<path d="M11.1897 2.5045C11.1897 2.33709 11.1228 2.16968 11.0022 2.04915L10.0915 1.13843C9.97101 1.0179 9.8036 0.950928 9.63619 0.950928C9.46878 0.950928 9.30137 1.0179 9.18083 1.13843L4.78798 5.53799L2.81923 3.56254C2.69869 3.442 2.53128 3.37504 2.36387 3.37504C2.19646 3.37504 2.02905 3.442 1.90851 3.56254L0.997803 4.47325C0.877267 4.59379 0.810303 4.7612 0.810303 4.92861C0.810303 5.09602 0.877267 5.26343 0.997803 5.38397L3.42191 7.80808L4.33262 8.71879C4.45316 8.83933 4.62057 8.90629 4.78798 8.90629C4.95539 8.90629 5.1228 8.83933 5.24333 8.71879L6.15405 7.80808L11.0022 2.95986C11.1228 2.83933 11.1897 2.67192 11.1897 2.5045Z" fill="#00D0DB"/>
</svg>
