<svg width="16" height="16" viewBox="0 0 16 16" fill="none" xmlns="http://www.w3.org/2000/svg">
<path fill-rule="evenodd" clip-rule="evenodd" d="M14.6099 1.77842V3.71053C14.6099 4.58382 13.9014 5.28756 13.0283 5.28756H12.0305C11.1573 5.28756 10.4395 4.58382 10.4395 3.71053V1.77148H5.574V3.71053C5.574 4.58382 4.85619 5.28756 3.9831 5.28756H2.98517C2.11205 5.28756 1.40363 4.58382 1.40363 3.71053V1.77842C0.640503 1.80142 0.0134277 2.43288 0.0134277 3.20903V14.5321C0.0134277 15.3228 0.654344 15.9723 1.44508 15.9723H14.5684C15.3579 15.9723 16 15.3215 16 14.5321V3.20903C16 2.43288 15.373 1.80142 14.6099 1.77842ZM5.71432 8.41607C5.71432 8.18622 5.52791 8 5.29791 8H3.84479C3.61505 8 3.42861 8.18622 3.42861 8.41607V9.86926C3.42861 10.0994 3.61505 10.2857 3.84479 10.2857H5.29791C5.52791 10.2857 5.71432 10.0994 5.71432 9.86926V8.41607ZM8.72685 8C8.95643 8 9.14289 8.18622 9.14289 8.41607V9.86926C9.14289 10.0994 8.95643 10.2857 8.72685 10.2857H7.2734C7.04364 10.2857 6.85718 10.0994 6.85718 9.86926V8.41607C6.85718 8.18622 7.04364 8 7.2734 8H8.72685ZM12.5715 8.41607C12.5715 8.18622 12.385 8 12.1553 8H10.7022C10.4722 8 10.2857 8.18622 10.2857 8.41607V9.86926C10.2857 10.0994 10.4722 10.2857 10.7022 10.2857H12.1553C12.385 10.2857 12.5715 10.0994 12.5715 9.86926V8.41607ZM5.29791 11.4286C5.52791 11.4286 5.71432 11.6147 5.71432 11.8449V13.298C5.71432 13.528 5.52791 13.7143 5.29791 13.7143H3.84479C3.61505 13.7143 3.42861 13.528 3.42861 13.298V11.8449C3.42861 11.6147 3.61505 11.4286 3.84479 11.4286H5.29791ZM9.14289 11.8449C9.14289 11.6147 8.95643 11.4286 8.72685 11.4286H7.2734C7.04364 11.4286 6.85718 11.6147 6.85718 11.8449V13.298C6.85718 13.528 7.04364 13.7143 7.2734 13.7143H8.72685C8.95643 13.7143 9.14289 13.528 9.14289 13.298V11.8449ZM12.1555 11.4286C12.385 11.4286 12.5715 11.6147 12.5715 11.8449V13.298C12.5715 13.528 12.385 13.7143 12.1555 13.7143H10.7022C10.4722 13.7143 10.2857 13.528 10.2857 13.298V11.8449C10.2857 11.6147 10.4722 11.4286 10.7022 11.4286H12.1555Z" fill="#C1C1C1"/>
<path d="M2.98164 4.25178H3.96853C4.26808 4.25178 4.51096 4.00926 4.51096 3.70971V0.542266C4.51096 0.242683 4.26808 0 3.96853 0H2.98164C2.68206 0 2.43921 0.242683 2.43921 0.542266V3.70971C2.43921 4.00926 2.68206 4.25178 2.98164 4.25178Z" fill="#C1C1C1"/>
<path d="M11.9711 4.25178H12.958C13.2574 4.25178 13.5002 4.00926 13.5002 3.70971V0.542266C13.5003 0.242683 13.2574 0 12.958 0H11.9711C11.6716 0 11.4287 0.242683 11.4287 0.542266V3.70971C11.4287 4.00926 11.6716 4.25178 11.9711 4.25178Z" fill="#B3B3B3"/>
</svg>
