<svg width="30" height="28" viewBox="0 0 30 28" fill="none" xmlns="http://www.w3.org/2000/svg">
<path fill-rule="evenodd" clip-rule="evenodd" d="M11.5652 28C17.9525 28 23.1304 22.8221 23.1304 16.4348C23.1304 10.0475 17.9525 4.86955 11.5652 4.86955C5.17792 4.86955 0 10.0475 0 16.4348C0 22.8221 5.17792 28 11.5652 28ZM17.7039 21.0205C17.7335 21.0895 17.7335 21.1585 17.7335 21.2275C17.7335 21.5823 17.5758 22.2723 17.4279 22.5975C17.2209 23.0805 16.669 23.3959 16.2254 23.6424C15.6439 23.9578 15.0525 24.145 14.3921 24.145C13.614 24.145 12.8999 23.8752 12.1894 23.6068C12.0628 23.5589 11.9363 23.5111 11.8096 23.4649C11.2083 23.2481 10.6268 22.982 10.0847 22.6468C8.40904 21.6119 6.38841 19.5912 5.35345 17.9156C5.01833 17.3735 4.75219 16.7919 4.53535 16.1907C4.48913 16.0639 4.44133 15.9375 4.3935 15.8108C4.12505 15.1004 3.85523 14.3862 3.85523 13.6082C3.85523 12.9478 4.04251 12.3564 4.35792 11.7749C4.60434 11.3313 4.91976 10.7793 5.40274 10.5723C5.72801 10.4245 6.41798 10.2668 6.77282 10.2668C6.84182 10.2668 6.91082 10.2668 6.97981 10.2964C7.16601 10.3584 7.36018 10.7555 7.46906 10.9781C7.48122 11.003 7.49232 11.0257 7.50222 11.0455C7.60736 11.2327 7.7114 11.4211 7.81545 11.6095C8.02353 11.9862 8.23162 12.363 8.44846 12.731C8.48784 12.7949 8.53581 12.8626 8.58564 12.9329C8.73539 13.1441 8.90187 13.3789 8.90187 13.6082C8.90187 13.918 8.42827 14.3011 7.96909 14.6724C7.53706 15.0219 7.11781 15.361 7.11781 15.619C7.11781 15.8387 7.28576 16.1121 7.42199 16.334C7.45078 16.3808 7.47815 16.4254 7.50222 16.4667C8.49775 18.2606 9.73969 19.5025 11.5336 20.4981C11.5749 20.5221 11.6194 20.5495 11.6663 20.5783C11.8881 20.7145 12.1616 20.8825 12.3813 20.8825C12.6393 20.8825 12.9784 20.4632 13.3278 20.0312C13.6992 19.572 14.0823 19.0984 14.3921 19.0984C14.6213 19.0984 14.8562 19.2649 15.0674 19.4146C15.1377 19.4645 15.2053 19.5124 15.2693 19.5518C15.6373 19.7687 16.014 19.9767 16.3908 20.1848C16.5792 20.2889 16.7675 20.3929 16.9548 20.4981C16.9746 20.508 16.9973 20.5191 17.0222 20.5312C17.2448 20.6401 17.6419 20.8343 17.7039 21.0205Z" fill="white"/>
<circle cx="20.6956" cy="8.52174" r="8.52174" fill="white"/>
<path fill-rule="evenodd" clip-rule="evenodd" d="M27.6679 8.52174C27.6679 4.67274 24.5446 1.54941 20.6956 1.54941C16.8466 1.54941 13.7232 4.67274 13.7232 8.52174C13.7232 12.3707 16.8466 15.4941 20.6956 15.4941C24.5446 15.4941 27.6679 12.3707 27.6679 8.52174ZM29.2173 8.52174C29.2173 3.81703 25.4003 0 20.6956 0C15.9909 0 12.1738 3.81703 12.1738 8.52174C12.1738 13.2264 15.9909 17.0435 20.6956 17.0435C25.4003 17.0435 29.2173 13.2264 29.2173 8.52174Z" fill="#F44D4D"/>
<path d="M19.8534 10.7854C20 10.7854 20.1158 10.8317 20.2008 10.9243C20.2858 11.0135 20.3283 11.1325 20.3283 11.2813V12.1739H15.8262V11.678C15.8262 11.5821 15.8438 11.4797 15.8789 11.3706C15.9141 11.2615 15.9757 11.1623 16.0636 11.073L17.9102 8.97546C18.0684 8.79694 18.2062 8.62669 18.3234 8.4647C18.4407 8.30271 18.5374 8.14403 18.6136 7.98865C18.6898 7.82997 18.747 7.67294 18.7851 7.51756C18.8232 7.35888 18.8422 7.19194 18.8422 7.01672C18.8422 6.72911 18.7807 6.50927 18.6576 6.3572C18.5374 6.20182 18.3527 6.12414 18.1036 6.12414C17.9014 6.12414 17.7299 6.18529 17.5892 6.30761C17.4514 6.42662 17.3562 6.57539 17.3034 6.75391C17.2419 6.93573 17.1613 7.05639 17.0616 7.1159C16.962 7.17541 16.8198 7.18863 16.6351 7.15557L15.9141 7.01176C15.961 6.65142 16.0504 6.33736 16.1823 6.06959C16.3171 5.80181 16.4827 5.57866 16.6791 5.40015C16.8784 5.22163 17.1056 5.08939 17.3606 5.00344C17.6156 4.91418 17.8896 4.86955 18.1827 4.86955C18.4993 4.86955 18.7836 4.92245 19.0357 5.02823C19.2907 5.13072 19.5076 5.27452 19.6864 5.45965C19.8652 5.64478 20.0015 5.86628 20.0953 6.12414C20.192 6.37869 20.2403 6.65969 20.2403 6.96714C20.2403 7.23161 20.2066 7.47624 20.1392 7.70104C20.0747 7.92584 19.9853 8.14072 19.871 8.34569C19.7567 8.54735 19.6234 8.74405 19.4709 8.93579C19.3215 9.12422 19.1617 9.31597 18.9917 9.51101L17.7387 10.959C17.8999 10.9028 18.0596 10.8598 18.2179 10.8301C18.3762 10.8003 18.5227 10.7854 18.6576 10.7854H19.8534Z" fill="#F44D4D"/>
<path d="M23.7187 9.36721V7.48285C23.7187 7.36715 23.7217 7.24318 23.7275 7.11094C23.7363 6.9754 23.748 6.8349 23.7627 6.68944L22.07 9.36721H23.7187ZM25.5653 9.36721V10.23C25.5653 10.3061 25.5419 10.3722 25.495 10.4284C25.451 10.4846 25.3865 10.5127 25.3015 10.5127H24.9058V12.1739H23.7187V10.5127H21.1423C21.0573 10.5127 20.9797 10.4829 20.9093 10.4234C20.8419 10.3639 20.7994 10.2895 20.7818 10.2003L20.6411 9.44159L23.6044 4.94889H24.9058V9.36721H25.5653Z" fill="#F44D4D"/>
</svg>
