<svg width="19" height="16" viewBox="0 0 19 16" fill="none" xmlns="http://www.w3.org/2000/svg">
<path fill-rule="evenodd" clip-rule="evenodd" d="M16.6547 3.08333C16.6547 4.78621 15.2423 6.16667 13.5 6.16667C11.7576 6.16667 10.3452 4.78621 10.3452 3.08333C10.3452 1.38046 11.7576 0 13.5 0C15.2423 0 16.6547 1.38046 16.6547 3.08333ZM16.0295 6.4445C16.1148 6.38894 16.2 6.38894 16.2853 6.4445C17.9621 7.50005 18.7863 9.55561 18.7863 11.9445C18.7863 12.9723 14.779 13.3334 11.6811 13.1112C11.539 10.8612 10.6863 9.00006 9.2937 7.83339C9.6916 7.27783 10.1463 6.80561 10.7148 6.4445C10.8 6.38894 10.8853 6.38894 10.9705 6.4445C11.6811 6.9445 12.5621 7.25005 13.5 7.25005C14.4379 7.25005 15.319 6.9445 16.0295 6.4445ZM8.07158 8.27775C7.98632 8.22219 7.90105 8.22219 7.81579 8.27775C7.10526 8.77775 6.22421 9.08331 5.28632 9.08331C4.34842 9.08331 3.46737 8.77775 2.75684 8.27775C2.67158 8.22219 2.58632 8.22219 2.50105 8.27775C0.824211 9.33331 0 11.3889 0 13.7778C0 15.4166 10.6011 15.4166 10.6011 13.7778C10.5726 11.4166 9.74842 9.33331 8.07158 8.27775ZM8.44106 4.91671C8.44106 6.61958 7.02864 8.00004 5.28633 8.00004C3.54402 8.00004 2.13159 6.61958 2.13159 4.91671C2.13159 3.21383 3.54402 1.83337 5.28633 1.83337C7.02864 1.83337 8.44106 3.21383 8.44106 4.91671Z" fill="#B3B3B3"/>
</svg>
