<svg width="12" height="12" viewBox="0 0 12 12" fill="none" xmlns="http://www.w3.org/2000/svg">
<path d="M6 0C2.68533 0 0 2.68533 0 6C0 9.31467 2.68533 12 6 12C9.31467 12 12 9.31467 12 6C12 2.68533 9.31467 0 6 0ZM6.82667 9.08533C6.82667 9.54133 6.456 9.912 6 9.912C5.544 9.912 5.17333 9.54133 5.17333 9.08533V5.81333C5.17333 5.35733 5.544 4.98667 6 4.98667C6.456 4.98667 6.82667 5.35733 6.82667 5.81333V9.08533ZM6 4.08533C5.45067 4.08533 5.008 3.64 5.008 3.09333C5.008 2.544 5.45333 2.10133 6 2.10133C6.54667 2.10133 6.992 2.54667 6.992 3.09333C6.992 3.64 6.54933 4.08533 6 4.08533Z" fill="#00D0DB"/>
</svg>
